<svg width="100" height="125" xmlns="http://www.w3.org/2000/svg">

 <g>
  <title>background</title>
  <rect fill="none" id="canvas_background" height="602" width="802" y="-1" x="-1"/>
 </g>
 <g>
  <title>Layer 1</title>
  <path id="svg_1" d="m21.733,21.076c0,-0.552 -0.447,-1 -1,-1l-2.44,0c-0.553,0 -1,0.448 -1,1s0.447,1 1,1l2.44,0c0.553,0 1,-0.448 1,-1z"/>
  <path id="svg_2" d="m24.743,18.065c0.553,0 1,-0.448 1,-1l0,-2.44c0,-0.552 -0.447,-1 -1,-1s-1,0.448 -1,1l0,2.44c0,0.552 0.447,1 1,1z"/>
  <path id="svg_3" d="m21.201,23.205l-1.726,1.725c-0.391,0.39 -0.391,1.023 0,1.414c0.195,0.195 0.451,0.293 0.707,0.293s0.512,-0.098 0.707,-0.293l1.726,-1.725c0.391,-0.39 0.391,-1.023 0,-1.414s-1.023,-0.391 -1.414,0z"/>
  <path id="svg_4" d="m27.579,19.24c0.256,0 0.512,-0.098 0.707,-0.293l1.726,-1.726c0.391,-0.391 0.391,-1.023 0,-1.414s-1.023,-0.391 -1.414,0l-1.726,1.726c-0.391,0.391 -0.391,1.023 0,1.414c0.195,0.195 0.451,0.293 0.707,0.293z"/>
  <path id="svg_5" d="m20.89,15.807c-0.391,-0.391 -1.023,-0.391 -1.414,0s-0.391,1.023 0,1.414l1.726,1.726c0.195,0.195 0.451,0.293 0.707,0.293s0.512,-0.098 0.707,-0.293c0.391,-0.391 0.391,-1.023 0,-1.414l-1.726,-1.726z"/>
  <path id="svg_6" d="m24.729,90l23.25,0c0.553,0 1,-0.448 1,-1l0,-67.625c0,-0.552 -0.447,-1 -1,-1l-12.476,0c-0.403,-5.786 -5.227,-10.375 -11.113,-10.375c-6.149,0 -11.152,5.003 -11.152,11.152c0,5.233 3.891,10.665 10.402,10.696c0.002,0 0.003,0 0.005,0c0.03,0 0.056,-0.014 0.085,-0.017l0,57.169c-0.001,0.552 0.447,1 0.999,1zm1,-2l0,-53.345c1.049,0.331 2.376,0.607 4.247,0.607c2.953,0 4.563,-0.667 6.121,-1.312c1.438,-0.597 2.798,-1.16 5.353,-1.16c2.56,0 3.92,0.564 5.359,1.162l0.17,0.07l0,53.978l-21.25,0zm21.25,-56.141c-1.39,-0.56 -2.946,-1.069 -5.529,-1.069c-2.952,0 -4.562,0.667 -6.118,1.312c-1.44,0.596 -2.8,1.16 -5.355,1.16c-1.993,0 -3.225,-0.342 -4.247,-0.721l0,-10.166l21.25,0l0,9.484l-0.001,0zm-23.33,-2.01c-5.266,-0.025 -8.412,-4.441 -8.412,-8.696c0,-5.046 4.105,-9.152 9.152,-9.152c4.784,0 8.716,3.692 9.113,8.375l-8.773,0c-0.553,0 -1,0.448 -1,1l0,8.49c-0.027,-0.003 -0.051,-0.017 -0.08,-0.017z"/>
  <path id="svg_7" d="m79.093,10c-5.887,0 -10.711,4.588 -11.113,10.375l-12.477,0c-0.553,0 -1,0.448 -1,1l0,67.625c0,0.552 0.447,1 1,1l23.25,0c0.553,0 1,-0.448 1,-1l0,-57.168c0.029,0.003 0.055,0.017 0.085,0.017c0.002,0 0.003,0 0.005,0c6.512,-0.031 10.402,-5.463 10.402,-10.696c0,-6.15 -5.003,-11.153 -11.152,-11.153zm-1.34,12.375l0,10.166c-1.023,0.379 -2.254,0.721 -4.248,0.721c-2.555,0 -3.915,-0.563 -5.354,-1.16c-1.557,-0.645 -3.166,-1.312 -6.118,-1.312c-2.584,0 -4.139,0.51 -5.529,1.069l0,-9.484l21.249,0zm-21.25,65.625l0,-53.978l0.17,-0.07c1.439,-0.598 2.8,-1.162 5.359,-1.162c2.555,0 3.914,0.563 5.353,1.16c1.558,0.645 3.167,1.312 6.12,1.312c1.872,0 3.199,-0.276 4.248,-0.607l0,53.345l-21.25,0zm23.33,-58.151c-0.028,0 -0.052,0.014 -0.08,0.017l0,-8.49c0,-0.552 -0.447,-1 -1,-1l-8.773,0c0.397,-4.684 4.328,-8.376 9.113,-8.376c5.047,0 9.152,4.106 9.152,9.152c0,4.255 -3.146,8.671 -8.412,8.697z"/>
  <path id="svg_8" d="m82.749,20.076c-0.553,0 -1,0.448 -1,1s0.447,1 1,1l2.44,0c0.553,0 1,-0.448 1,-1s-0.447,-1 -1,-1l-2.44,0z"/>
  <path id="svg_9" d="m78.738,13.625c-0.553,0 -1,0.448 -1,1l0,2.44c0,0.552 0.447,1 1,1s1,-0.448 1,-1l0,-2.44c0,-0.552 -0.447,-1 -1,-1z"/>
  <path id="svg_10" d="m82.281,23.205c-0.391,-0.391 -1.023,-0.391 -1.414,0s-0.391,1.024 0,1.414l1.726,1.725c0.195,0.195 0.451,0.293 0.707,0.293s0.512,-0.098 0.707,-0.293c0.391,-0.391 0.391,-1.024 0,-1.414l-1.726,-1.725z"/>
  <path id="svg_11" d="m74.885,15.807c-0.391,-0.391 -1.023,-0.39 -1.414,0c-0.391,0.391 -0.391,1.024 0,1.415l1.725,1.726c0.195,0.195 0.451,0.293 0.707,0.293s0.512,-0.098 0.707,-0.292c0.391,-0.391 0.391,-1.024 0,-1.415l-1.725,-1.727z"/>
  <path id="svg_12" d="m81.574,19.24c0.256,0 0.512,-0.098 0.707,-0.293l1.726,-1.726c0.391,-0.391 0.391,-1.023 0,-1.414s-1.023,-0.391 -1.414,0l-1.726,1.726c-0.391,0.391 -0.391,1.023 0,1.414c0.195,0.195 0.451,0.293 0.707,0.293z"/>
 </g>
</svg>