<svg width="100" height="125" xmlns="http://www.w3.org/2000/svg">

 <g>
  <title>background</title>
  <rect fill="none" id="canvas_background" height="602" width="802" y="-1" x="-1"/>
 </g>
 <g>
  <title>Layer 1</title>
  <path id="svg_1" d="m57.96973,56.04297c-0.52344,-0.18359 -1.09278,0.08984 -1.27539,0.61182c-0.54395,1.54589 -1.0293,3.13916 -1.44239,4.73388c-0.15332,0.58936 -0.33007,1.3252 -0.5332,2.17188c-0.58496,2.44091 -1.38672,5.78418 -2.48828,9.19433c-0.16992,0.52539 0.11816,1.08936 0.64355,1.25928c0.10254,0.03271 0.20606,0.04883 0.30762,0.04883c0.42188,0 0.81445,-0.26953 0.95117,-0.69287c1.12696,-3.48389 1.93848,-6.87061 2.53125,-9.34326c0.19922,-0.83252 0.37305,-1.55567 0.52344,-2.13575c0.39941,-1.54101 0.86914,-3.07959 1.39355,-4.57324c0.1836,-0.52099 -0.09082,-1.0918 -0.61132,-1.2749z"/>
  <path id="svg_2" d="m45.28125,63.56055c-0.20312,-0.84668 -0.37988,-1.58252 -0.5332,-2.17188c-0.42774,-1.6499 -0.93067,-3.29004 -1.49219,-4.87402c-0.18555,-0.52051 -0.75977,-0.79053 -1.27637,-0.60791c-0.52051,0.18457 -0.79297,0.75635 -0.6084,1.27685c0.542,1.5293 1.02735,3.11329 1.44141,4.70801c0.15039,0.57959 0.32422,1.30274 0.52344,2.13526c0.59277,2.47265 1.40429,5.85937 2.53125,9.34326c0.13672,0.42334 0.52929,0.69287 0.95117,0.69287c0.10156,0 0.20508,-0.01611 0.30762,-0.04883c0.52539,-0.16992 0.81347,-0.73389 0.64355,-1.25928c-1.10156,-3.41015 -1.90332,-6.75342 -2.48828,-9.19433z"/>
  <path id="svg_3" d="m27.66699,47.15381l0,1.90039c0,1.99371 1.54004,3.6167 3.48981,3.78735c0.6214,1.09272 2.26398,4.18677 3.53949,8.44556c0.15039,0.50098 0.32324,1.12646 0.52246,1.8457c1.48608,5.37134 4.10315,14.81208 9.27026,19.16107l-4.43139,0.75055c-1.66309,0.28125 -2.87012,1.70948 -2.87012,3.396l0,0.62695c0,1.61719 1.31543,2.93262 2.93262,2.93262l19.75976,0c1.61719,0 2.93262,-1.31543 2.93262,-2.93262l0,-0.62695c0,-1.68652 -1.20703,-3.11475 -2.87012,-3.396l-4.43139,-0.75055c5.16711,-4.34899 7.78418,-13.78973 9.27026,-19.16107c0.19922,-0.71924 0.37207,-1.34472 0.52246,-1.8457c1.27551,-4.25879 2.91809,-7.35284 3.53949,-8.44556c1.94977,-0.17065 3.48981,-1.79364 3.48981,-3.78735l0,-1.90039c0,-2.10645 -1.71387,-3.82031 -3.82031,-3.82031l-1.62677,0c1.94824,-1.60736 3.19219,-4.03931 3.19219,-6.75635c0,-4.46631 -3.36132,-8.16211 -7.68652,-8.69141c0.75,-1.15625 1.15723,-2.51172 1.15723,-3.93506c0,-1.38507 -0.40442,-2.63757 -1.18726,-3.73138c0.03101,-0.23669 0.05249,-0.47626 0.05249,-0.72125c0,-1.44678 -0.5625,-2.76154 -1.47455,-3.74878c0.62537,-0.95526 2.49085,-3.1612 6.67865,-3.75952c0.54688,-0.07764 0.92676,-0.58448 0.84864,-1.13135c-0.07813,-0.54639 -0.58594,-0.92676 -1.13184,-0.84815c-4.76965,0.68116 -7.08484,3.21027 -7.99322,4.53791c-0.74317,-0.3714 -1.57801,-0.58576 -2.46381,-0.58576c-1.36267,0 -2.60986,0.49707 -3.57544,1.31647c-2.23688,-1.67419 -2.35663,-3.96991 -2.36304,-4.24176c-0.01172,-0.54346 -0.45605,-0.98828 -1,-0.98828c-4.04687,0 -7.33984,3.29199 -7.33984,7.33887c0,0.54248 0.05957,1.07714 0.17773,1.60058c-4.04101,0.11865 -7.29199,3.44287 -7.29199,7.51221c0,1.1914 0.28516,2.35644 0.82031,3.40478c-3.62597,0.65821 -6.38379,3.83887 -6.38379,7.65137c0,2.29364 1.00397,4.35217 2.58857,5.77686l-1.02314,0c-2.10644,0 -3.82031,1.71386 -3.82031,3.82031zm33.14551,39.28662l0,0.62695c0,0.51416 -0.41797,0.93262 -0.93262,0.93262l-19.75976,0c-0.51465,0 -0.93262,-0.41846 -0.93262,-0.93262l0,-0.62695c0,-0.70703 0.50684,-1.30615 1.2041,-1.42432l6.8418,-1.15869l5.5332,0l6.8418,1.15869c0.69726,0.11817 1.2041,0.71729 1.2041,1.42432zm2.5752,-25.72754c-0.15332,0.51221 -0.33008,1.15137 -0.53418,1.88672c-1.47266,5.32294 -4.5254,16.32983 -10.26545,19.25781l-5.17614,0c-5.74006,-2.92798 -8.79279,-13.93487 -10.26545,-19.25781c-0.2041,-0.73535 -0.38086,-1.37451 -0.53418,-1.88672c-1.05493,-3.52118 -2.33074,-6.25372 -3.15777,-7.83789l33.09094,0c-0.82703,1.58417 -2.10284,4.31671 -3.15777,7.83789zm-6.50977,-44.75049c1.9502,0 3.53613,1.58594 3.53613,3.53565s-1.58593,3.53613 -3.53613,3.53613s-3.53613,-1.58643 -3.53613,-3.53613s1.58593,-3.53565 3.53613,-3.53565zm-19.17969,15.81787c0.08692,0 0.17285,0.00684 0.35254,0.01905c0.41992,0.02832 0.7832,-0.19483 0.96094,-0.55713c0.17871,-0.36328 0.12012,-0.79785 -0.14649,-1.10156c-0.88964,-1.01075 -1.37988,-2.30372 -1.37988,-3.64014c0,-3.04151 2.47461,-5.51563 5.51563,-5.51563c0.33203,0 0.67871,0.03369 1.02929,0.1001c0.37403,0.07227 0.74903,-0.07373 0.97852,-0.37158c0.22949,-0.29834 0.27246,-0.7002 0.11133,-1.04004c-0.34571,-0.72656 -0.52051,-1.49561 -0.52051,-2.28564c0,-2.64502 1.93359,-4.84717 4.46191,-5.26661c0.23786,1.21094 0.94867,3.14795 2.97669,4.69568c-0.44238,0.79517 -0.69641,1.70868 -0.69641,2.68128c0,3.05273 2.4834,5.53613 5.53613,5.53613c1.85205,0 3.49036,-0.9173 4.49591,-2.31799c0.10999,0.39233 0.17499,0.80206 0.17499,1.23449c0,1.64942 -0.75684,3.17481 -2.07715,4.18457c-0.36426,0.27881 -0.49219,0.76905 -0.31152,1.18995c0.18164,0.42089 0.62402,0.66699 1.07812,0.59179c0.40039,-0.06494 0.75488,-0.09619 1.08399,-0.09619c2.85766,0 5.30041,1.78595 6.28619,4.29797c-1.98871,0.29523 -3.14996,1.35968 -4.18561,2.32166c-1.12695,1.04639 -2.0166,1.87305 -3.92773,1.87305s-2.80078,-0.82666 -3.92676,-1.87305c-1.21484,-1.12842 -2.5918,-2.40772 -5.28906,-2.40772c-2.69532,0 -4.07129,1.2793 -5.28516,2.40772c-1.12598,1.04639 -2.01465,1.87305 -3.9248,1.87305s-2.79981,-0.82666 -3.92579,-1.87305c-1.01861,-0.94617 -2.16137,-1.98853 -4.0899,-2.30371c1.0528,-1.42597 2.73981,-2.35645 4.64459,-2.35645zm-5.77636,5.77637c0,-0.52264 0.07598,-1.02685 0.20672,-1.50873c1.71808,0.07813 2.58472,0.8645 3.65363,1.85785c1.21484,1.12842 2.59082,2.40772 5.28711,2.40772s4.07226,-1.2793 5.28613,-2.40821c1.12598,-1.04638 2.01465,-1.87256 3.92383,-1.87256c1.91113,0 2.80175,0.82667 3.92773,1.87305c1.21485,1.12842 2.5918,2.40772 5.28809,2.40772c2.69726,0 4.07422,-1.2793 5.28906,-2.40772c0.98859,-0.91791 1.79523,-1.66607 3.26825,-1.83618c0.01257,0.16815 0.02569,0.33624 0.02569,0.50757c0,3.72558 -3.03027,6.75635 -6.75585,6.75635l-23.62403,0c-3.18554,0 -5.77636,-2.59131 -5.77636,-5.77686zm29.40039,7.77686l7.19043,0c1.0039,0 1.82031,0.8164 1.82031,1.82031l0,1.90039c0,1.00391 -0.81641,1.8208 -1.82031,1.8208l-37.0254,0c-1.0039,0 -1.82031,-0.81689 -1.82031,-1.8208l0,-1.90039c0,-1.00391 0.81641,-1.82031 1.82031,-1.82031l6.21094,0l23.62403,0z"/>
 </g>
</svg>