<svg width="100" height="125" xmlns="http://www.w3.org/2000/svg">

 <g>
  <title>background</title>
  <rect fill="none" id="canvas_background" height="602" width="802" y="-1" x="-1"/>
 </g>
 <g>
  <title>Layer 1</title>
  <path id="svg_1" d="m12.137,75.199l0,2.129l-0.945,0c-0.553,0 -1,0.447 -1,1l0,10.672c0,0.553 0.447,1 1,1l77.895,0c0.553,0 1,-0.447 1,-1l0,-10.672c0,-0.553 -0.447,-1 -1,-1l-1.089,0l0,-2.129c0,-19.826 -15.293,-36.137 -34.699,-37.783c2.252,-1.172 3.797,-3.524 3.797,-6.234c0,-3.875 -3.152,-7.028 -7.027,-7.028s-7.028,3.153 -7.028,7.028c0,2.71 1.545,5.062 3.798,6.234c-19.41,1.646 -34.702,17.957 -34.702,37.783zm75.949,12.801l-75.895,0l0,-8.672l75.895,0l0,8.672zm-43.047,-56.818c0,-2.772 2.256,-5.028 5.028,-5.028s5.027,2.256 5.027,5.028s-2.255,5.027 -5.027,5.027s-5.028,-2.255 -5.028,-5.027zm5.028,8.087c19.812,0 35.93,16.118 35.93,35.931l0,2.129l-71.86,0l0,-2.129c0,-19.813 16.118,-35.931 35.93,-35.931z"/>
  <path id="svg_2" d="m22.269,68.602c0.061,0.012 0.12,0.017 0.18,0.017c0.474,0 0.895,-0.338 0.982,-0.821c1.704,-9.365 8.744,-17.035 17.934,-19.54c0.533,-0.146 0.848,-0.695 0.702,-1.228c-0.146,-0.534 -0.698,-0.848 -1.228,-0.702c-9.929,2.706 -17.534,10.992 -19.375,21.111c-0.1,0.543 0.261,1.064 0.805,1.163z"/>
  <path id="svg_3" d="m83.096,10.125c-0.48,-0.267 -1.091,-0.097 -1.36,0.388l-9.116,16.36c-0.269,0.482 -0.095,1.091 0.388,1.36c0.153,0.085 0.32,0.126 0.485,0.126c0.351,0 0.691,-0.185 0.875,-0.514l9.116,-16.36c0.268,-0.482 0.094,-1.09 -0.388,-1.36z"/>
  <path id="svg_4" d="m78.362,33.125c0.161,0.383 0.532,0.612 0.922,0.612c0.13,0 0.262,-0.025 0.388,-0.078l9.802,-4.127c0.51,-0.215 0.748,-0.801 0.534,-1.31c-0.215,-0.511 -0.805,-0.746 -1.31,-0.534l-9.802,4.127c-0.509,0.215 -0.748,0.801 -0.534,1.31z"/>
  <path id="svg_5" d="m18.413,10.845c-0.271,-0.484 -0.882,-0.653 -1.36,-0.388c-0.482,0.27 -0.656,0.878 -0.388,1.36l9.116,16.36c0.184,0.329 0.524,0.514 0.875,0.514c0.165,0 0.332,-0.041 0.485,-0.126c0.482,-0.27 0.656,-0.878 0.388,-1.36l-9.116,-16.36z"/>
  <path id="svg_6" d="m10.142,28.555c-0.214,0.509 0.024,1.095 0.534,1.31l9.801,4.127c0.126,0.053 0.258,0.078 0.388,0.078c0.39,0 0.761,-0.229 0.922,-0.612c0.214,-0.509 -0.024,-1.095 -0.534,-1.31l-9.801,-4.127c-0.505,-0.212 -1.096,0.023 -1.31,0.534z"/>
 </g>
</svg>