<svg width="100" height="125" xmlns="http://www.w3.org/2000/svg">

 <g>
  <title>background</title>
  <rect fill="none" id="canvas_background" height="602" width="802" y="-1" x="-1"/>
 </g>
 <g>
  <title>Layer 1</title>
  <path id="svg_1" d="m89,42.11279l-3.85901,0c-0.3031,-9.30835 -7.67444,-16.84301 -16.92322,-17.42279c-1.84674,-8.53229 -9.44537,-14.69 -18.23144,-14.69c-8.76471,0 -16.39093,6.16602 -18.2348,14.69012c-9.24622,0.58149 -16.61591,8.11548 -16.91889,17.42267l-3.85998,0c-0.55274,0 -1,0.44776 -1,1c0,18.0586 12.05835,33.35016 28.55304,38.28492c-1.50483,2.25616 -2.30597,4.86676 -2.30597,7.60229c0,0.55225 0.44726,1 1,1l25.5332,0c0.55273,0 1,-0.44775 1,-1c0,-2.74402 -0.7937,-5.35107 -2.29834,-7.60443c16.49084,-4.9372 28.54541,-20.22693 28.54541,-38.28278c0,-0.55224 -0.44727,-1 -1,-1zm-5.85901,0l-3.86816,0c-0.31116,-6.45776 -5.65381,-11.62011 -12.1947,-11.62011s-11.88257,5.16235 -12.19373,11.62011l-3.86816,0c0.31433,-8.58691 7.38818,-15.48047 16.06188,-15.48047c8.67457,0 15.74854,6.89356 16.06287,15.48047zm-10.13379,0c-0.29748,-3.00628 -2.84228,-5.36279 -5.92907,-5.36279s-5.63166,2.35651 -5.92908,5.36279l-4.26465,0c0.30865,-5.35492 4.75543,-9.62011 10.19373,-9.62011c5.43823,0 9.88598,4.26519 10.19458,9.62011l-4.26551,0zm-2.02991,0l-7.7984,0c0.28803,-1.89868 1.91889,-3.36279 3.89924,-3.36279s3.6112,1.46411 3.89916,3.36279zm-14.2705,-14.19336c-1.02259,-2.76165 -3.68256,-4.66943 -6.7107,-4.66943c-3.02539,0 -5.6878,1.91992 -6.70764,4.68628c-0.91986,-0.64789 -1.90246,-1.2085 -2.93707,-1.67853c1.09949,-4.37762 5.07819,-7.51361 9.64081,-7.51361c4.573,0 8.53857,3.12933 9.63904,7.50885c-1.02961,0.46698 -2.00824,1.02326 -2.92444,1.66644zm-6.7107,-2.66943c2.41462,0 4.49756,1.68481 5.02234,4.02094c-2.268,2.03363 -4.01751,4.62292 -5.0321,7.55963c-1.01264,-2.93109 -2.75751,-5.51606 -5.01923,-7.54798c0.51874,-2.34039 2.61536,-4.03259 5.02899,-4.03259zm-0.00976,-13.25c7.69433,0 14.36426,5.28979 16.1734,12.67877c-1.61371,0.08155 -3.1745,0.36035 -4.65057,0.83881c-1.40662,-5.13239 -6.11103,-8.77344 -11.51697,-8.77344c-5.39197,0 -10.10932,3.6488 -11.51575,8.77814c-1.47937,-0.48078 -3.04388,-0.76148 -4.66174,-0.84339c1.80719,-7.38159 8.49652,-12.67889 16.17163,-12.67889zm-17.0918,14.63232c8.67371,0 15.74756,6.89356 16.06189,15.48047l-4.08691,0c-0.31116,-6.45776 -5.65284,-11.62011 -12.19373,-11.62011s-11.88354,5.16235 -12.1947,11.62011l-3.64844,0c0.31433,-8.58691 7.38819,-15.48047 16.06189,-15.48047zm5.71033,15.48047c-0.29743,-3.00628 -2.84229,-5.36279 -5.92908,-5.36279s-5.63165,2.35651 -5.92908,5.36279l-4.26556,0c0.30872,-5.35492 4.75635,-9.62011 10.19464,-9.62011s9.88507,4.26519 10.19373,9.62011l-4.26465,0zm-2.02985,0l-7.79846,0c0.28803,-1.89868 1.91888,-3.36279 3.89923,-3.36279s3.61121,1.46411 3.89923,3.36279zm25.1369,45.88721l-23.45019,0c0.18164,-2.17285 0.95703,-4.22803 2.26855,-5.99414c0.01374,-0.01849 0.01599,-0.04096 0.02826,-0.06006c3.02527,0.73279 6.18012,1.13086 9.4278,1.13086c3.24029,0 6.38818,-0.39648 9.40722,-1.1261c1.34003,1.77826 2.13489,3.84747 2.31836,6.04944zm-11.72558,-6.92334c-20.62598,0 -37.46778,-16.49121 -38.00098,-36.96387l76.00195,0c-0.5332,20.47266 -17.375,36.96387 -38.00097,36.96387z"/>
 </g>
</svg>