<svg width="100" height="125" xmlns="http://www.w3.org/2000/svg">

 <g>
  <title>background</title>
  <rect fill="none" id="canvas_background" height="602" width="802" y="-1" x="-1"/>
 </g>
 <g>
  <title>Layer 1</title>
  <path id="svg_1" d="m33.284,20.883l-6.042,0l-0.902,-9.973c-0.047,-0.515 -0.479,-0.91 -0.996,-0.91l-3.782,0c-0.518,0 -0.949,0.395 -0.996,0.91l-0.902,9.973l-6.042,0c-0.553,0 -1,0.448 -1,1l0,4.356l-1.496,0c-0.553,0 -1,0.448 -1,1l0,61.761c0,0.552 0.447,1 1,1l24.654,0c0.553,0 1,-0.448 1,-1l0,-61.761c0,-0.552 -0.447,-1 -1,-1l-1.496,0l0,-4.356c0,-0.552 -0.447,-1 -1,-1zm-10.808,-8.883l1.954,0l0.804,8.882l-3.562,0l0.804,-8.882zm-7.855,10.883l17.663,0l0,3.356l-17.663,0l0,-3.356zm11.826,5.356l2.094,0l0,14.86c0,0.577 -0.47,1.047 -1.047,1.047s-1.047,-0.47 -1.047,-1.047l0,-14.86zm-8.083,0l2.094,0l0,9.081c0,0.577 -0.47,1.047 -1.047,1.047s-1.047,-0.47 -1.047,-1.047l0,-9.081zm16.416,59.761l-22.655,0l0,-59.761l4.239,0l0,9.081c0,1.68 1.367,3.047 3.047,3.047s3.047,-1.367 3.047,-3.047l0,-9.081l1.989,0l0,14.86c0,1.68 1.367,3.047 3.047,3.047s3.047,-1.367 3.047,-3.047l0,-14.86l4.239,0l0,59.761z"/>
  <path id="svg_2" d="m50.953,28.764l-1.335,0c-1.648,0 -2.989,1.341 -2.989,2.989l0,1.371l-0.872,0c-4.242,0 -7.693,3.452 -7.693,7.694c0,3.385 2.2,6.259 5.242,7.286l0,1.879c-1.196,0.298 -2.088,1.372 -2.088,2.659c0,1.405 1.064,2.554 2.426,2.716c-0.098,0.472 -0.465,1.618 -1.865,4.018c-2.799,4.799 -2.785,11.216 0.031,19.59c-0.946,0.496 -1.6,1.477 -1.6,2.618c0,0.578 0.173,1.115 0.461,1.571c-0.743,0.552 -1.231,1.429 -1.231,2.424l0,3.421c0,0.552 0.447,1 1,1l19.693,0c0.553,0 1,-0.448 1,-1l0,-3.42c0,-0.995 -0.488,-1.871 -1.231,-2.424c0.288,-0.457 0.461,-0.993 0.461,-1.571c0,-1.141 -0.654,-2.122 -1.6,-2.618c2.816,-8.375 2.83,-14.791 0.031,-19.591c-1.284,-2.2 -1.819,-3.391 -2.047,-4c1.449,-0.075 2.608,-1.267 2.608,-2.735c0,-1.286 -0.892,-2.361 -2.087,-2.659l0,-1.879c3.042,-1.027 5.242,-3.902 5.242,-7.286c0,-4.242 -3.452,-7.694 -7.694,-7.694l-0.872,0l0,-1.371c-0.002,-1.648 -1.342,-2.988 -2.991,-2.988zm-2.324,2.989c0,-0.545 0.443,-0.989 0.989,-0.989l1.335,0c0.546,0 0.989,0.444 0.989,0.989l0,1.371l-3.313,0l0,-1.371zm8.766,48.865c0.533,0 0.968,0.434 0.968,0.967s-0.435,0.967 -0.968,0.967l-14.218,0c-0.533,0 -0.967,-0.434 -0.967,-0.967s0.434,-0.967 0.967,-0.967l14.218,0zm1.738,7.382l-17.694,0l0,-2.42c0,-0.567 0.461,-1.028 1.028,-1.028l0.709,0l14.218,0l0.71,0c0.567,0 1.028,0.461 1.028,1.028l0,2.42l0.001,0zm-2.361,-9.382l-12.972,0c-2.717,-7.94 -2.816,-13.908 -0.292,-18.233c1.558,-2.671 2.056,-4.151 2.159,-4.993l8.996,0c0.242,0.992 1.042,2.66 2.402,4.993c2.523,4.325 2.424,10.293 -0.293,18.233zm-0.167,-25.227l-12.638,0c-0.413,0 -0.749,-0.336 -0.749,-0.749c0,-0.413 0.336,-0.749 0.749,-0.749l12.639,0c0.412,0 0.748,0.336 0.748,0.749c0,0.413 -0.336,0.749 -0.749,0.749zm-1.338,-3.497l-9.961,0l0,-1.405c0.15,0.009 0.299,0.023 0.451,0.023l9.058,0c0.153,0 0.302,-0.014 0.452,-0.023l0,1.405zm5.242,-9.076c0,3.139 -2.555,5.693 -5.694,5.693l-9.058,0c-3.14,0 -5.693,-2.554 -5.693,-5.693c0,-3.14 2.554,-5.694 5.693,-5.694l9.058,0c3.139,0 5.694,2.554 5.694,5.694z"/>
  <path id="svg_3" d="m69.5,39.995c-0.244,0.325 -0.512,0.682 -0.803,1.09l-1.912,2.684c-1.691,2.374 -2.585,5.169 -2.585,8.084l0,35.213c0,1.619 1.316,2.936 2.936,2.936l20.054,0c1.619,0 2.936,-1.317 2.936,-2.936l0,-35.214c0,-2.915 -0.895,-5.71 -2.586,-8.084l-1.911,-2.683c-0.291,-0.408 -0.559,-0.765 -0.803,-1.09c-1.128,-1.501 -1.595,-2.123 -1.595,-4.192l0,-1.883c0.917,-0.103 1.635,-0.875 1.635,-1.819l0,-3.611c0,-1.014 -0.825,-1.839 -1.839,-1.839l-2.452,0l0,-15.622c0,-0.398 -0.236,-0.758 -0.602,-0.917c-0.363,-0.158 -0.789,-0.086 -1.08,0.186l-4.822,4.495c-0.203,0.189 -0.318,0.454 -0.318,0.731l0,11.126l-2.453,0c-1.015,0 -1.84,0.825 -1.84,1.839l0,3.612c0,0.944 0.718,1.715 1.635,1.819l0,1.883c0,2.069 -0.467,2.69 -1.595,4.192zm17.689,48.005l-20.053,0c-0.516,0 -0.936,-0.42 -0.936,-0.936l0,-34.571c5.263,0.036 7.881,1.057 10.644,2.14c2.799,1.096 5.698,2.227 11.281,2.276l0,30.157c0,0.515 -0.42,0.934 -0.936,0.934zm-3.19,-45.755l1.911,2.684c1.449,2.033 2.215,4.427 2.215,6.923l0,3.057c-5.2,-0.047 -7.805,-1.062 -10.551,-2.139c-2.8,-1.097 -5.701,-2.228 -11.289,-2.276c0.227,-2.001 0.946,-3.904 2.129,-5.565l1.912,-2.684c0.28,-0.393 0.538,-0.736 0.773,-1.049c1.201,-1.6 1.995,-2.656 1.995,-5.393l0,-1.862l8.136,0l0,1.862c0,2.737 0.794,3.793 1.995,5.393c0.236,0.313 0.494,0.657 0.774,1.049zm-8.247,-26.286l2.822,-2.63l0,13.321l-2.822,0l0,-10.691zm-4.292,12.691l11.405,0l0,3.291l-11.405,0l0,-3.291z"/>
 </g>
</svg>