<svg width="100" height="125" xmlns="http://www.w3.org/2000/svg">

 <g>
  <title>background</title>
  <rect fill="none" id="canvas_background" height="602" width="802" y="-1" x="-1"/>
 </g>
 <g>
  <title>Layer 1</title>
  <path id="svg_1" d="m32.428,46.729c2.384,0 4.765,-0.812 6.699,-2.425l5.441,5.989l-5.79,5.315l-0.848,-0.848c-0.391,-0.391 -1.023,-0.391 -1.414,0l-24.415,24.417c-2.452,2.453 -2.452,6.444 0,8.896c1.188,1.188 2.769,1.842 4.448,1.842c1.681,0 3.261,-0.654 4.448,-1.842l24.416,-24.416c0.391,-0.391 0.391,-1.023 0,-1.414l-0.848,-0.848l4.897,-5.334l5.032,5.481l-0.701,0.701c-0.391,0.391 -0.391,1.023 0,1.414l24.416,24.416c1.227,1.226 2.837,1.839 4.448,1.839s3.222,-0.613 4.448,-1.839c1.188,-1.188 1.843,-2.768 1.843,-4.448s-0.654,-3.26 -1.843,-4.448l-24.416,-24.416c-0.391,-0.391 -1.023,-0.391 -1.414,0l-0.995,0.995l-5.719,-5.25l6.037,-6.576c2.686,1.805 5.799,2.714 8.915,2.714c4.095,0 8.19,-1.559 11.308,-4.676c5.97,-5.969 13.009,-22.786 6.59,-29.205c-6.42,-6.421 -23.236,0.62 -29.205,6.589c-5.49,5.49 -6.14,14.008 -1.963,20.222l-6.952,6.382l-6.095,-5.654l0.145,-0.145c4.081,-4.081 4.081,-10.722 0,-14.804l-15.098,-15.097c-0.375,-0.375 -1.039,-0.375 -1.414,0l-16.9,16.901c-0.391,0.391 -0.391,1.023 0,1.414l15.097,15.097c2.04,2.041 4.721,3.061 7.402,3.061zm-12.845,39.93c-0.811,0.81 -1.888,1.256 -3.034,1.256c-1.146,0 -2.224,-0.446 -3.034,-1.256c-1.672,-1.673 -1.672,-4.396 0,-6.068l23.709,-23.709l6.068,6.068l-23.709,23.709zm42.399,-29.777l23.709,23.709c0.811,0.811 1.257,1.888 1.257,3.034s-0.446,2.224 -1.257,3.034c-1.674,1.673 -4.395,1.672 -6.068,0l-23.709,-23.709l6.068,-6.068zm-3.117,0.289l-2.956,2.956l-5.09,-5.544l2.39,-2.603l5.656,5.191zm0.755,-36.404c5.428,-5.428 21.063,-11.902 26.377,-6.589c5.313,5.314 -1.162,20.949 -6.59,26.377c-5.281,5.281 -13.76,5.434 -19.245,0.489l-1.031,-1.031c-4.944,-5.486 -4.792,-13.965 0.489,-19.246zm-1.414,21.201c0.173,0.173 0.359,0.323 0.538,0.486l0.258,0.258l-6.579,7.166c-0.004,0.004 -0.009,0.005 -0.013,0.009c-0.004,0.004 -0.005,0.01 -0.008,0.014l-9.252,10.079l-2.955,-2.955l17.267,-15.853l0.255,0.255c0.164,0.18 0.315,0.367 0.489,0.541zm-10.392,5.346l-1.772,1.627l-5.467,-6.017l1.206,-1.206l6.033,5.596zm-20.278,-34.937l14.391,14.39c3.302,3.302 3.302,8.674 0,11.976l-3.511,3.511c-3.303,3.3 -8.676,3.301 -11.977,0l-14.39,-14.39l15.487,-15.487z"/>
  <path id="svg_2" d="m36.229,31.451c0.195,0.195 0.451,0.293 0.707,0.293s0.512,-0.098 0.707,-0.293c0.391,-0.391 0.391,-1.023 0,-1.414l-10.476,-10.477c-0.391,-0.391 -1.023,-0.391 -1.414,0s-0.391,1.023 0,1.414l10.476,10.477z"/>
  <path id="svg_3" d="m32.567,35.113c0.195,0.195 0.451,0.293 0.707,0.293s0.512,-0.098 0.707,-0.293c0.391,-0.391 0.391,-1.023 0,-1.414l-10.476,-10.477c-0.391,-0.391 -1.023,-0.391 -1.414,0s-0.391,1.023 0,1.414l10.476,10.477z"/>
  <path id="svg_4" d="m29.612,39.068c0.256,0 0.512,-0.098 0.707,-0.293c0.391,-0.391 0.391,-1.023 0,-1.414l-10.476,-10.477c-0.391,-0.391 -1.023,-0.391 -1.414,0s-0.391,1.023 0,1.414l10.477,10.477c0.195,0.195 0.45,0.293 0.706,0.293z"/>
 </g>
</svg>